# xmcd
#
# Track frame offsets:
#	150
#	7759
#	20976
#	34675
#	50146
#	64077
#	74819
#	87868
#	112535
#	122541
#	136148
#	151156
#	163651
#	173485
#	187369
#	200366
#
# Disc length: 2903 seconds
#
# Revision: 0
# Processed by: cddbd v1.5.1PL0 Copyright (c) Steve Scherf et al.
# Submitted via: audiograbber 1.83.01
#
DISCID=d30b5510
DTITLE=Frank Sinatra - I only have eyes for you cd2
DYEAR=1900
DGENRE=
TTITLE0=It had to be you
TTITLE1=It could happen to you
TTITLE2=San Fernando Valley
TTITLE3=I'll walk alone
TTITLE4=I'll be seeing you
TTITLE5=Sweet Lorraine
TTITLE6=Amor
TTITLE7=Porgy and bess medley
TTITLE8=The trolley song
TTITLE9=With a song in my heart
TTITLE10=Night and day
TTITLE11=The music stopped
TTITLE12=Together
TTITLE13=My heart tells me
TTITLE14=I couldn't sleep a wink last night
TTITLE15=Begin the beguine
EXTD=
EXTT0=
EXTT1=
EXTT2=
EXTT3=
EXTT4=
EXTT5=
EXTT6=
EXTT7=
EXTT8=
EXTT9=
EXTT10=
EXTT11=
EXTT12=
EXTT13=
EXTT14=
EXTT15=
PLAYORDER=
